<svg width="22" height="22" viewBox="0 0 22 22" fill="none" xmlns="http://www.w3.org/2000/svg">
<path fill-rule="evenodd" clip-rule="evenodd" d="M11 22C17.0751 22 22 17.0751 22 11C22 4.92487 17.0751 0 11 0C4.92487 0 0 4.92487 0 11C0 17.0751 4.92487 22 11 22Z" fill="#B5C9EC"/>
<mask id="mask0_621_1250" style="mask-type:alpha" maskUnits="userSpaceOnUse" x="0" y="0" width="22" height="22">
<path fill-rule="evenodd" clip-rule="evenodd" d="M11 22C17.0751 22 22 17.0751 22 11C22 4.92487 17.0751 0 11 0C4.92487 0 0 4.92487 0 11C0 17.0751 4.92487 22 11 22Z" fill="white"/>
</mask>
<g mask="url(#mask0_621_1250)">
<path d="M8.57562 16.9007L5.67283 18.4618C5.50249 18.5533 4.15596 19.0998 4.01352 19.2225C6.70713 21.2509 9.08444 21.7028 11.4714 21.7028C13.8408 21.7028 16.4475 20.4128 18.1351 19.025C17.9795 18.8955 17.3743 18.5743 17.1871 18.4824L14.0787 16.9502C13.6771 16.7523 13.4234 16.3476 13.4234 15.9049V14.7025C13.5108 14.6044 13.6106 14.4785 13.7175 14.3297C14.1411 13.7397 14.4616 13.0908 14.6837 12.4099C15.0824 12.2887 15.3761 11.9256 15.3761 11.4942V10.2107C15.3761 9.92839 15.2487 9.67611 15.0508 9.49948V7.64412C15.0508 7.64412 15.4374 4.75684 11.4714 4.75684C7.50548 4.75684 7.89205 7.64412 7.89205 7.64412V9.49948C7.69381 9.67611 7.56679 9.92839 7.56679 10.2107V11.4942C7.56679 11.8323 7.74704 12.1298 8.01687 12.3017C8.34214 13.6978 9.19385 14.7025 9.19385 14.7025V15.8753C9.19348 16.3024 8.95632 16.6958 8.57562 16.9007Z" fill="#E4EEFF"/>
</g>
</svg>
